<svg width="50" height="51" viewBox="0 0 50 51" fill="none" xmlns="http://www.w3.org/2000/svg">
<path d="M9.675 10.2H42.8C45.925 10.2 47.5 11.7045 47.5 14.7645V36.2355C47.5 39.27 45.925 40.8 42.8 40.8H9.675C6.55 40.8 4.975 39.27 4.975 36.2355V14.7645C4.975 11.7045 6.55 10.2 9.675 10.2ZM26.225 32.13L43.075 18.0285C43.675 17.5185 44.15 16.3455 43.4 15.3C42.675 14.2545 41.35 14.229 40.475 14.8665L26.225 24.7095L12 14.8665C11.125 14.229 9.8 14.2545 9.075 15.3C8.325 16.3455 8.8 17.5185 9.4 18.0285L26.225 32.13Z" fill="white"/>
</svg>
