<svg width="42" height="41" viewBox="0 0 42 41" fill="none" xmlns="http://www.w3.org/2000/svg">
<path fill-rule="evenodd" clip-rule="evenodd" d="M13.0638 1.82106C15.1165 1.72881 15.771 1.70831 21 1.70831C26.229 1.70831 26.8835 1.73052 28.9345 1.82106C30.9855 1.9116 32.3855 2.23106 33.6105 2.69402C34.8932 3.16723 36.057 3.90694 37.0195 4.8636C37.9995 5.80148 38.7555 6.93581 39.2385 8.18973C39.7145 9.38556 40.04 10.7522 40.1345 12.751C40.229 14.7583 40.25 15.3972 40.25 20.5C40.25 25.6045 40.2273 26.2434 40.1345 28.2473C40.0418 30.246 39.7145 31.6127 39.2385 32.8085C38.7555 34.0626 37.9982 35.1988 37.0195 36.1381C36.057 37.0947 34.8932 37.8327 33.6105 38.3042C32.3855 38.7689 30.9855 39.0866 28.938 39.1789C26.8835 39.2711 26.229 39.2916 21 39.2916C15.771 39.2916 15.1165 39.2694 13.0638 39.1789C11.0163 39.0884 9.61625 38.7689 8.39125 38.3042C7.10661 37.8327 5.94269 37.0935 4.9805 36.1381C4.00116 35.1996 3.2433 34.0639 2.75975 32.8102C2.2855 31.6144 1.96 30.2477 1.8655 28.249C1.771 26.2417 1.75 25.6028 1.75 20.5C1.75 15.3955 1.77275 14.7566 1.8655 12.7544C1.95825 10.7522 2.2855 9.38556 2.75975 8.18973C3.24401 6.93595 4.00246 5.80031 4.98225 4.8619C5.94307 3.90609 7.10583 3.16628 8.3895 2.69402C9.6145 2.23106 11.0145 1.91331 13.062 1.82106H13.0638ZM28.7787 5.20356C26.7487 5.11302 26.1398 5.09423 21 5.09423C15.8602 5.09423 15.2512 5.11302 13.2212 5.20356C11.3435 5.28727 10.325 5.59306 9.646 5.85102C8.74825 6.19269 8.106 6.59756 7.43225 7.25527C6.79358 7.86182 6.30207 8.60021 5.99375 9.41631C5.7295 10.0791 5.41625 11.0734 5.3305 12.9064C5.23775 14.8881 5.2185 15.4826 5.2185 20.5C5.2185 25.5174 5.23775 26.1119 5.3305 28.0935C5.41625 29.9266 5.7295 30.9208 5.99375 31.5836C6.30175 32.3985 6.7935 33.1382 7.43225 33.7447C8.0535 34.3682 8.81125 34.8483 9.646 35.1489C10.325 35.4069 11.3435 35.7127 13.2212 35.7964C15.2512 35.8869 15.8585 35.9057 21 35.9057C26.1415 35.9057 26.7487 35.8869 28.7787 35.7964C30.6565 35.7127 31.675 35.4069 32.354 35.1489C33.2518 34.8073 33.894 34.4024 34.5678 33.7447C35.2065 33.1382 35.6983 32.3985 36.0063 31.5836C36.2705 30.9208 36.5838 29.9266 36.6695 28.0935C36.7623 26.1119 36.7815 25.5174 36.7815 20.5C36.7815 15.4826 36.7623 14.8881 36.6695 12.9064C36.5838 11.0734 36.2705 10.0791 36.0063 9.41631C35.6563 8.53994 35.2415 7.91298 34.5678 7.25527C33.9464 6.63185 33.19 6.15205 32.354 5.85102C31.675 5.59306 30.6565 5.28727 28.7787 5.20356V5.20356ZM18.5413 26.2929C19.9144 26.8509 21.4434 26.9262 22.8671 26.506C24.2908 26.0858 25.5209 25.196 26.3473 23.9888C27.1737 22.7816 27.5451 21.3317 27.3981 19.8869C27.2511 18.442 26.5948 17.0918 25.5413 16.0669C24.8697 15.4117 24.0576 14.91 23.1636 14.5979C22.2695 14.2859 21.3158 14.1712 20.3709 14.2622C19.426 14.3532 18.5135 14.6475 17.6992 15.1241C16.8848 15.6006 16.1888 16.2475 15.6613 17.0181C15.1338 17.7888 14.7878 18.664 14.6484 19.5808C14.509 20.4976 14.5795 21.4332 14.8549 22.3202C15.1304 23.2072 15.6038 24.0236 16.2413 24.7105C16.8787 25.3975 17.6642 25.9379 18.5413 26.2929ZM14.0035 13.6701C14.9223 12.7731 16.0131 12.0617 17.2135 11.5763C18.414 11.0909 19.7006 10.841 21 10.841C22.2994 10.841 23.586 11.0909 24.7865 11.5763C25.9869 12.0617 27.0777 12.7731 27.9965 13.6701C28.9153 14.567 29.6441 15.6318 30.1414 16.8037C30.6386 17.9755 30.8945 19.2315 30.8945 20.5C30.8945 21.7684 30.6386 23.0244 30.1414 24.1963C29.6441 25.3682 28.9153 26.433 27.9965 27.3299C26.1409 29.1413 23.6242 30.1589 21 30.1589C18.3758 30.1589 15.8591 29.1413 14.0035 27.3299C12.1479 25.5185 11.1055 23.0617 11.1055 20.5C11.1055 17.9383 12.1479 15.4815 14.0035 13.6701V13.6701ZM33.089 12.2795C33.3167 12.0698 33.499 11.8177 33.625 11.538C33.7511 11.2584 33.8184 10.9568 33.823 10.6513C33.8275 10.3458 33.7693 10.0425 33.6516 9.75936C33.5339 9.47623 33.3593 9.21902 33.1379 9.00296C32.9166 8.78691 32.6531 8.6164 32.3631 8.50153C32.073 8.38666 31.7623 8.32977 31.4494 8.33423C31.1364 8.33868 30.8275 8.40439 30.541 8.52746C30.2546 8.65053 29.9963 8.82847 29.7815 9.05073C29.3638 9.48299 29.1351 10.0571 29.144 10.6513C29.1529 11.2455 29.3986 11.8129 29.829 12.2331C30.2595 12.6533 30.8407 12.8932 31.4494 12.9018C32.058 12.9105 32.6462 12.6872 33.089 12.2795V12.2795Z" fill="white"/>
</svg>
